# xmcd
#
# Track frame offsets:
#	150
#	12192
#	27779
#	40671
#	53115
#	67109
#	78542
#	90501
#	101573
#	118962
#	132062
#	145010
#	156119
#	169565
#	182899
#	196975
#
# Disc length: 2788 seconds
#
# Revision: 0
# Processed by: cddbd v1.5.1PL2 Copyright (c) Steve Scherf et al.
# Submitted via: dBpowerAMP V4.0
#
DISCID=ce0ae210
DTITLE=Various Artist - What Kind of Girl Is This
DYEAR=1900
DGENRE=Blues
TTITLE0=Buddy Skipper and The Code Blues Band - Boogie The Joint
TTITLE1=W. J. Moore and The Dynamic Upsetters - Last Call For ALcohol
TTITLE2=Rev. Billy C Wirtz - That's What You Do To Me
TTITLE3=The Carolina Royals - Feel So Good (How How)
TTITLE4=Jumpin Johnny and The Blues Party - I Got A Feelin'
TTITLE5=Doug Jay and The Blue Jays - I Can't Stand You No More
TTITLE6=Doug Jay and The Blue Jays - I Need Someone To Love Me
TTITLE7=Doug Jay and The Blue Jays - Treat Me Like I Treat You
TTITLE8=Doug Jay and The Blue Jays - What Kind of Girl Is This
TTITLE9=Carter Minor - Evalena
TTITLE10=The Jump Hounds of Jive - I Wanna Know
TTITLE11=The Jump Hounds of Jive - Trying To Make A Living
TTITLE12=The Jump Hounds of Jive - Let It Roll Again
TTITLE13=The Jump Hounds of Jive - I Like Your Style
TTITLE14=Buddy Skipper - Boogie Woogie Baby
TTITLE15=Sally Windham and 5 Guys Named Moe - Hole In The Wall
EXTD=
EXTT0=
EXTT1=
EXTT2=
EXTT3=
EXTT4=
EXTT5=
EXTT6=
EXTT7=
EXTT8=
EXTT9=
EXTT10=
EXTT11=
EXTT12=
EXTT13=
EXTT14=
EXTT15=
PLAYORDER=
